<?xml version="1.0" encoding="UTF-8" standalone="no"?>
<!-- Generator: Adobe Illustrator 16.0.0, SVG Export Plug-In . SVG Version: 6.00 Build 0)  -->

<svg
   xmlns:dc="http://purl.org/dc/elements/1.1/"
   xmlns:cc="http://creativecommons.org/ns#"
   xmlns:rdf="http://www.w3.org/1999/02/22-rdf-syntax-ns#"
   xmlns:svg="http://www.w3.org/2000/svg"
   xmlns="http://www.w3.org/2000/svg"
   xmlns:sodipodi="http://sodipodi.sourceforge.net/DTD/sodipodi-0.dtd"
   xmlns:inkscape="http://www.inkscape.org/namespaces/inkscape"
   version="1.1"
   id="Layer_1"
   x="0px"
   y="0px"
   width="512px"
   height="512px"
   viewBox="0 0 128 128"
   enable-background="new 0 0 128 128"
   xml:space="preserve"
   inkscape:version="0.91 r13725"
   sodipodi:docname="sensors.svg"><metadata
   id="metadata9"><rdf:RDF><cc:Work
       rdf:about=""><dc:format>image/svg+xml</dc:format><dc:type
         rdf:resource="http://purl.org/dc/dcmitype/StillImage" /></cc:Work></rdf:RDF></metadata><defs
   id="defs7" /><sodipodi:namedview
   pagecolor="#ffffff"
   bordercolor="#666666"
   borderopacity="1"
   objecttolerance="10"
   gridtolerance="10"
   guidetolerance="10"
   inkscape:pageopacity="0"
   inkscape:pageshadow="2"
   inkscape:window-width="701"
   inkscape:window-height="480"
   id="namedview5"
   showgrid="false"
   inkscape:zoom="0.32593203"
   inkscape:cx="256"
   inkscape:cy="275.3977"
   inkscape:window-x="435"
   inkscape:window-y="76"
   inkscape:window-maximized="0"
   inkscape:current-layer="Layer_1" />
<path
   d="M64,24C30.863,24,4,50.863,4,84c0,7.023,1.27,13.734,3.488,20h113.023C122.73,97.734,124,91.023,124,84  C124,50.863,97.137,24,64,24z M52.93,96c1.656-4.621,5.875-8,11.07-8s9.414,3.379,11.07,8H52.93z M83.453,96l-0.941-3.5  l23.43-33.715L72.57,82.008c0.098,0.047,0.18,0.117,0.273,0.164C70.172,80.828,67.195,80,64,80c-9.641,0-17.594,6.898-19.453,16  H13.445c-0.641-2.648-0.99-5.324-1.205-8H24c2.211,0,4-1.789,4-4s-1.789-4-4-4H12.203c0.869-11.328,5.363-21.645,12.352-29.789  l8.332,8.332c1.563,1.566,4.094,1.566,5.656,0c1.566-1.563,1.566-4.094,0-5.656l-8.332-8.332C38.355,37.566,48.672,33.072,60,32.203  V44c0,2.211,1.789,4,4,4s4-1.789,4-4V32.203c11.328,0.869,21.645,5.363,29.789,12.352l-8.332,8.332  c-1.566,1.563-1.566,4.094,0,5.656c1.563,1.566,4.094,1.566,5.656,0l8.332-8.332c6.988,8.145,11.484,18.461,12.352,29.789H104  c-2.211,0-4,1.789-4,4s1.789,4,4,4h11.758c-0.211,2.676-0.563,5.352-1.203,8H83.453z"
   fill="#FFFFFF"
   id="path3"
   style="fill:#f15f18;fill-opacity:1" />
</svg>