<?xml version="1.0" encoding="UTF-8" standalone="no"?>
<!-- Generator: Adobe Illustrator 16.0.0, SVG Export Plug-In . SVG Version: 6.00 Build 0)  -->

<svg
   xmlns:dc="http://purl.org/dc/elements/1.1/"
   xmlns:cc="http://creativecommons.org/ns#"
   xmlns:rdf="http://www.w3.org/1999/02/22-rdf-syntax-ns#"
   xmlns:svg="http://www.w3.org/2000/svg"
   xmlns="http://www.w3.org/2000/svg"
   xmlns:sodipodi="http://sodipodi.sourceforge.net/DTD/sodipodi-0.dtd"
   xmlns:inkscape="http://www.inkscape.org/namespaces/inkscape"
   version="1.1"
   id="Capa_1"
   x="0px"
   y="0px"
   width="512px"
   height="512px"
   viewBox="0 0 395.195 395.195"
   style="enable-background:new 0 0 395.195 395.195;"
   xml:space="preserve"
   inkscape:version="0.91 r13725"
   sodipodi:docname="temperature.svg"><metadata
   id="metadata41"><rdf:RDF><cc:Work
       rdf:about=""><dc:format>image/svg+xml</dc:format><dc:type
         rdf:resource="http://purl.org/dc/dcmitype/StillImage" /></cc:Work></rdf:RDF></metadata><defs
   id="defs39" /><sodipodi:namedview
   pagecolor="#ffffff"
   bordercolor="#666666"
   borderopacity="1"
   objecttolerance="10"
   gridtolerance="10"
   guidetolerance="10"
   inkscape:pageopacity="0"
   inkscape:pageshadow="2"
   inkscape:window-width="701"
   inkscape:window-height="480"
   id="namedview37"
   showgrid="false"
   inkscape:zoom="0.4609375"
   inkscape:cx="256"
   inkscape:cy="253.83051"
   inkscape:window-x="643"
   inkscape:window-y="148"
   inkscape:window-maximized="0"
   inkscape:current-layer="Capa_1" />
<g
   id="g3"
   style="fill:#f15f18;fill-opacity:1">
	<path
   d="M248.949,236.832V51.352C248.949,23.037,225.914,0,197.598,0c-28.316,0-51.352,23.036-51.352,51.352v185.48   c-22.764,16.441-36.148,42.436-36.148,70.863c0,48.248,39.252,87.5,87.5,87.5s87.5-39.252,87.5-87.5   C285.098,279.268,271.713,253.275,248.949,236.832z M197.598,370.195c-34.463,0-62.5-28.037-62.5-62.499   c0-22.036,11.265-42.027,30.134-53.478c3.734-2.268,6.015-6.318,6.015-10.688V51.351c0-14.53,11.821-26.352,26.352-26.352   c14.531,0,26.353,11.821,26.353,26.352v11.105h-4.635c-6.902,0-12.5,5.597-12.5,12.5s5.598,12.5,12.5,12.5h4.635v45h-4.635   c-6.902,0-12.5,5.597-12.5,12.5s5.598,12.5,12.5,12.5h4.635v45h-4.635c-6.902,0-12.5,5.597-12.5,12.5s5.598,12.5,12.5,12.5h4.635   v16.074c0,4.368,2.279,8.42,6.015,10.687c18.869,11.45,30.134,31.441,30.134,53.479   C260.098,342.158,232.061,370.195,197.598,370.195z"
   fill="#FFFFFF"
   id="path5"
   style="fill:#f15f18;fill-opacity:1" />
</g>
<g
   id="g7"
   style="fill:#f15f18;fill-opacity:1">
</g>
<g
   id="g9"
   style="fill:#f15f18;fill-opacity:1">
</g>
<g
   id="g11"
   style="fill:#f15f18;fill-opacity:1">
</g>
<g
   id="g13"
   style="fill:#f15f18;fill-opacity:1">
</g>
<g
   id="g15"
   style="fill:#f15f18;fill-opacity:1">
</g>
<g
   id="g17"
   style="fill:#f15f18;fill-opacity:1">
</g>
<g
   id="g19"
   style="fill:#f15f18;fill-opacity:1">
</g>
<g
   id="g21"
   style="fill:#f15f18;fill-opacity:1">
</g>
<g
   id="g23"
   style="fill:#f15f18;fill-opacity:1">
</g>
<g
   id="g25"
   style="fill:#f15f18;fill-opacity:1">
</g>
<g
   id="g27"
   style="fill:#f15f18;fill-opacity:1">
</g>
<g
   id="g29"
   style="fill:#f15f18;fill-opacity:1">
</g>
<g
   id="g31"
   style="fill:#f15f18;fill-opacity:1">
</g>
<g
   id="g33"
   style="fill:#f15f18;fill-opacity:1">
</g>
<g
   id="g35"
   style="fill:#f15f18;fill-opacity:1">
</g>
</svg>