<?xml version="1.0" encoding="UTF-8" standalone="no"?>
<!-- Generator: Adobe Illustrator 17.1.0, SVG Export Plug-In . SVG Version: 6.00 Build 0)  -->

<svg
   xmlns:dc="http://purl.org/dc/elements/1.1/"
   xmlns:cc="http://creativecommons.org/ns#"
   xmlns:rdf="http://www.w3.org/1999/02/22-rdf-syntax-ns#"
   xmlns:svg="http://www.w3.org/2000/svg"
   xmlns="http://www.w3.org/2000/svg"
   xmlns:sodipodi="http://sodipodi.sourceforge.net/DTD/sodipodi-0.dtd"
   xmlns:inkscape="http://www.inkscape.org/namespaces/inkscape"
   version="1.1"
   id="Capa_1"
   x="0px"
   y="0px"
   viewBox="0 0 331.696 331.696"
   style="enable-background:new 0 0 331.696 331.696;"
   xml:space="preserve"
   width="512px"
   height="512px"
   inkscape:version="0.91 r13725"
   sodipodi:docname="accelerometer.svg"><metadata
   id="metadata39"><rdf:RDF><cc:Work
       rdf:about=""><dc:format>image/svg+xml</dc:format><dc:type
         rdf:resource="http://purl.org/dc/dcmitype/StillImage" /></cc:Work></rdf:RDF></metadata><defs
   id="defs37" /><sodipodi:namedview
   pagecolor="#ffffff"
   bordercolor="#666666"
   borderopacity="1"
   objecttolerance="10"
   gridtolerance="10"
   guidetolerance="10"
   inkscape:pageopacity="0"
   inkscape:pageshadow="2"
   inkscape:window-width="2465"
   inkscape:window-height="1417"
   id="namedview35"
   showgrid="false"
   inkscape:zoom="0.4609375"
   inkscape:cx="-405.69492"
   inkscape:cy="333.64104"
   inkscape:window-x="87"
   inkscape:window-y="-8"
   inkscape:window-maximized="1"
   inkscape:current-layer="Capa_1" />
<path
   d="M331.011,262.189l-15.105-32.907c-1.729-3.765-6.179-5.415-9.945-3.688  c-3.764,1.729-5.415,6.181-3.688,9.945l7.556,16.46l-115.196-45.417c1.793-4.088,2.796-8.6,2.796-13.343  c0-15.801-11.054-29.06-25.833-32.473v-91.39l12.8,12.801c1.464,1.464,3.384,2.196,5.303,2.196s3.839-0.732,5.303-2.196  c2.929-2.93,2.929-7.678,0-10.607l-25.604-25.604c-0.018-0.018-0.038-0.033-0.057-0.051c-0.156-0.153-0.317-0.301-0.486-0.44  c-0.055-0.045-0.113-0.083-0.169-0.126c-0.138-0.107-0.275-0.214-0.42-0.311c-0.051-0.034-0.105-0.063-0.156-0.095  c-0.156-0.099-0.312-0.197-0.475-0.284c-0.036-0.02-0.074-0.035-0.111-0.053c-0.181-0.094-0.365-0.183-0.554-0.262  c-0.024-0.01-0.049-0.017-0.074-0.027c-0.202-0.082-0.406-0.157-0.616-0.221c-0.027-0.008-0.054-0.013-0.081-0.021  c-0.206-0.06-0.415-0.115-0.628-0.158c-0.063-0.013-0.128-0.018-0.192-0.029c-0.177-0.031-0.354-0.062-0.536-0.08  c-0.248-0.025-0.498-0.038-0.749-0.038s-0.501,0.013-0.749,0.038c-0.181,0.018-0.358,0.049-0.536,0.08  c-0.064,0.011-0.129,0.017-0.192,0.029c-0.213,0.042-0.422,0.098-0.628,0.158c-0.027,0.008-0.054,0.013-0.081,0.021  c-0.21,0.064-0.414,0.139-0.616,0.221c-0.024,0.01-0.049,0.017-0.074,0.027c-0.189,0.079-0.373,0.168-0.554,0.262  c-0.036,0.019-0.075,0.034-0.111,0.053c-0.163,0.087-0.319,0.185-0.475,0.284c-0.052,0.033-0.105,0.061-0.156,0.095  c-0.145,0.097-0.283,0.204-0.42,0.311c-0.056,0.043-0.115,0.082-0.169,0.126c-0.169,0.139-0.33,0.287-0.486,0.44  c-0.018,0.018-0.039,0.033-0.057,0.051l-25.603,25.604c-2.929,2.93-2.929,7.678,0,10.607c2.929,2.928,7.678,2.928,10.606,0  l12.8-12.8v91.389c-14.779,3.413-25.833,16.671-25.833,32.473c0,5.2,1.198,10.124,3.331,14.515L21.867,251.999l7.556-16.46  c1.728-3.765,0.077-8.217-3.688-9.945c-3.764-1.727-8.217-0.077-9.945,3.688L0.685,262.189c-1.728,3.765-0.077,8.217,3.687,9.945  L37.28,287.24c1.014,0.465,2.077,0.686,3.124,0.686c2.841,0,5.559-1.622,6.821-4.373c1.728-3.765,0.077-8.217-3.688-9.945  l-16.439-7.546l117.035-46.142c5.568,4.176,12.48,6.653,19.96,6.653c8.014,0,15.376-2.844,21.131-7.574l119.371,47.063  l-16.439,7.546c-3.765,1.729-5.415,6.181-3.688,9.945c1.263,2.751,3.98,4.373,6.821,4.373c1.046,0,2.11-0.221,3.124-0.686  l32.907-15.105C331.087,270.406,332.738,265.953,331.011,262.189z M164.095,211.573c-10.109,0-18.333-8.225-18.333-18.333  c0-10.109,8.225-18.334,18.333-18.334s18.333,8.225,18.333,18.334C182.428,203.348,174.203,211.573,164.095,211.573z"
   fill="#FFFFFF"
   id="path3"
   style="fill:#f15f18;fill-opacity:1;stroke:none;stroke-opacity:1;stroke-width:1.00027085;stroke-miterlimit:4;stroke-dasharray:none" />
<g
   id="g5">
</g>
<g
   id="g7">
</g>
<g
   id="g9">
</g>
<g
   id="g11">
</g>
<g
   id="g13">
</g>
<g
   id="g15">
</g>
<g
   id="g17">
</g>
<g
   id="g19">
</g>
<g
   id="g21">
</g>
<g
   id="g23">
</g>
<g
   id="g25">
</g>
<g
   id="g27">
</g>
<g
   id="g29">
</g>
<g
   id="g31">
</g>
<g
   id="g33">
</g>
</svg>