<?xml version="1.0" encoding="UTF-8" standalone="no"?>
<!-- Generator: Adobe Illustrator 19.1.0, SVG Export Plug-In . SVG Version: 6.00 Build 0)  -->

<svg
   xmlns:dc="http://purl.org/dc/elements/1.1/"
   xmlns:cc="http://creativecommons.org/ns#"
   xmlns:rdf="http://www.w3.org/1999/02/22-rdf-syntax-ns#"
   xmlns:svg="http://www.w3.org/2000/svg"
   xmlns="http://www.w3.org/2000/svg"
   xmlns:sodipodi="http://sodipodi.sourceforge.net/DTD/sodipodi-0.dtd"
   xmlns:inkscape="http://www.inkscape.org/namespaces/inkscape"
   version="1.1"
   id="Capa_1"
   x="0px"
   y="0px"
   viewBox="0 0 202.978 202.978"
   style="enable-background:new 0 0 202.978 202.978;"
   xml:space="preserve"
   width="512px"
   height="512px"
   inkscape:version="0.91 r13725"
   sodipodi:docname="help.svg"><metadata
   id="metadata47"><rdf:RDF><cc:Work
       rdf:about=""><dc:format>image/svg+xml</dc:format><dc:type
         rdf:resource="http://purl.org/dc/dcmitype/StillImage" /></cc:Work></rdf:RDF></metadata><defs
   id="defs45" /><sodipodi:namedview
   pagecolor="#ffffff"
   bordercolor="#666666"
   borderopacity="1"
   objecttolerance="10"
   gridtolerance="10"
   guidetolerance="10"
   inkscape:pageopacity="0"
   inkscape:pageshadow="2"
   inkscape:window-width="2465"
   inkscape:window-height="1417"
   id="namedview43"
   showgrid="false"
   inkscape:zoom="0.4609375"
   inkscape:cx="256"
   inkscape:cy="253.83051"
   inkscape:window-x="87"
   inkscape:window-y="-8"
   inkscape:window-maximized="1"
   inkscape:current-layer="g9" />
<g
   id="g3">
	<g
   id="g5">
		<g
   id="g7">
			<g
   id="g9">
				<path
   d="M100.942,0.001C44.9,0.304-0.297,45.98,0.006,102.031      c0.293,56.051,45.998,101.238,102.02,100.945c56.081-0.303,101.248-45.978,100.945-102.02      C202.659,44.886,157.013-0.292,100.942,0.001z M101.948,186.436c-46.916,0.234-85.108-37.576-85.372-84.492      c-0.244-46.907,37.537-85.157,84.453-85.411c46.926-0.254,85.167,37.596,85.421,84.483      C186.695,147.951,148.855,186.182,101.948,186.436z M116.984,145.899l-0.42-75.865l-39.149,0.254l0.078,16.6l10.63-0.059      l0.313,59.237l-11.275,0.039l0.088,15.857l49.134-0.264l-0.098-15.847L116.984,145.899z M102.065,58.837      c9.575-0.039,15.349-6.448,15.3-14.323c-0.254-8.07-5.882-14.225-15.095-14.186c-9.184,0.059-15.173,6.292-15.134,14.362      C87.185,52.555,93.028,58.906,102.065,58.837z"
   fill="#FFFFFF"
   id="path11"
   style="fill:#f15f18;fill-opacity:1" />
			</g>
		</g>
	</g>
</g>
<g
   id="g13">
</g>
<g
   id="g15">
</g>
<g
   id="g17">
</g>
<g
   id="g19">
</g>
<g
   id="g21">
</g>
<g
   id="g23">
</g>
<g
   id="g25">
</g>
<g
   id="g27">
</g>
<g
   id="g29">
</g>
<g
   id="g31">
</g>
<g
   id="g33">
</g>
<g
   id="g35">
</g>
<g
   id="g37">
</g>
<g
   id="g39">
</g>
<g
   id="g41">
</g>
</svg>