<?xml version="1.0" encoding="UTF-8" standalone="no"?>
<!-- Generator: Adobe Illustrator 18.1.1, SVG Export Plug-In . SVG Version: 6.00 Build 0)  -->

<svg
   xmlns:dc="http://purl.org/dc/elements/1.1/"
   xmlns:cc="http://creativecommons.org/ns#"
   xmlns:rdf="http://www.w3.org/1999/02/22-rdf-syntax-ns#"
   xmlns:svg="http://www.w3.org/2000/svg"
   xmlns="http://www.w3.org/2000/svg"
   xmlns:sodipodi="http://sodipodi.sourceforge.net/DTD/sodipodi-0.dtd"
   xmlns:inkscape="http://www.inkscape.org/namespaces/inkscape"
   version="1.1"
   id="Capa_1"
   x="0px"
   y="0px"
   viewBox="0 0 16 16"
   style="enable-background:new 0 0 16 16;"
   xml:space="preserve"
   width="512px"
   height="512px"
   inkscape:version="0.91 r13725"
   sodipodi:docname="battery.svg"><metadata
   id="metadata43"><rdf:RDF><cc:Work
       rdf:about=""><dc:format>image/svg+xml</dc:format><dc:type
         rdf:resource="http://purl.org/dc/dcmitype/StillImage" /></cc:Work></rdf:RDF></metadata><defs
   id="defs41" /><sodipodi:namedview
   pagecolor="#ffffff"
   bordercolor="#666666"
   borderopacity="1"
   objecttolerance="10"
   gridtolerance="10"
   guidetolerance="10"
   inkscape:pageopacity="0"
   inkscape:pageshadow="2"
   inkscape:window-width="2465"
   inkscape:window-height="1417"
   id="namedview39"
   showgrid="false"
   inkscape:zoom="0.921875"
   inkscape:cx="175.87415"
   inkscape:cy="190.01541"
   inkscape:window-x="87"
   inkscape:window-y="-8"
   inkscape:window-maximized="1"
   inkscape:current-layer="g3" />
<g
   id="g3">
	<path
   d="m 2.3050847,6.1007457 7.5932204,0 0,3.7966102 -7.5932204,0 0,-3.7966102 z"
   id="path5"
   style="fill:#f15f18;fill-opacity:1"
   inkscape:connector-curvature="0" />
	<path
   d="m 14.644068,5.1496948 c 0,-0.5239322 -0.42617,-0.9463051 -0.956746,-0.9463051 l -12.3237966,0 C 0.83484738,4.2024406 0.40677958,4.6333559 0.40677958,5.1496948 l 0,5.7006102 c 0,0.524881 0.42616949,0.946305 0.95674582,0.946305 l 12.3237966,0 c 0.528678,0 0.956746,-0.429966 0.956746,-0.946305 l 0,-0.9519999 0.949152,0 0,-3.7966102 -0.949152,0 0,-0.9520001 z m -0.949153,5.6968132 -12.3389829,0 0,-5.6949149 12.3389829,0 0,5.6949149 z"
   id="path7"
   style="fill:#f15f18;fill-opacity:1"
   inkscape:connector-curvature="0" />
</g>
<g
   id="g9">
</g>
<g
   id="g11">
</g>
<g
   id="g13">
</g>
<g
   id="g15">
</g>
<g
   id="g17">
</g>
<g
   id="g19">
</g>
<g
   id="g21">
</g>
<g
   id="g23">
</g>
<g
   id="g25">
</g>
<g
   id="g27">
</g>
<g
   id="g29">
</g>
<g
   id="g31">
</g>
<g
   id="g33">
</g>
<g
   id="g35">
</g>
<g
   id="g37">
</g>
</svg>