<?xml version="1.0" encoding="UTF-8" standalone="no"?>
<svg
   xmlns:dc="http://purl.org/dc/elements/1.1/"
   xmlns:cc="http://creativecommons.org/ns#"
   xmlns:rdf="http://www.w3.org/1999/02/22-rdf-syntax-ns#"
   xmlns:svg="http://www.w3.org/2000/svg"
   xmlns="http://www.w3.org/2000/svg"
   xmlns:sodipodi="http://sodipodi.sourceforge.net/DTD/sodipodi-0.dtd"
   xmlns:inkscape="http://www.inkscape.org/namespaces/inkscape"
   version="1.1"
   viewBox="0 0 512 512"
   enable-background="new 0 0 512 512"
   width="512px"
   height="512px"
   id="svg2"
   inkscape:version="0.91 r13725"
   sodipodi:docname="noise.svg">
  <metadata
     id="metadata20">
    <rdf:RDF>
      <cc:Work
         rdf:about="">
        <dc:format>image/svg+xml</dc:format>
        <dc:type
           rdf:resource="http://purl.org/dc/dcmitype/StillImage" />
      </cc:Work>
    </rdf:RDF>
  </metadata>
  <defs
     id="defs18" />
  <sodipodi:namedview
     pagecolor="#ffffff"
     bordercolor="#666666"
     borderopacity="1"
     objecttolerance="10"
     gridtolerance="10"
     guidetolerance="10"
     inkscape:pageopacity="0"
     inkscape:pageshadow="2"
     inkscape:window-width="2465"
     inkscape:window-height="1417"
     id="namedview16"
     showgrid="false"
     inkscape:zoom="0.4609375"
     inkscape:cx="256"
     inkscape:cy="253.83051"
     inkscape:window-x="87"
     inkscape:window-y="-8"
     inkscape:window-maximized="1"
     inkscape:current-layer="svg2" />
  <g
     id="g4"
     style="fill:#f15f18;fill-opacity:1">
    <g
       id="g6"
       style="fill:#f15f18;fill-opacity:1">
      <g
         id="g8"
         style="fill:#f15f18;fill-opacity:1">
        <path
           d="m444.8,76.8c-6.8-9-19.7-10.9-28.8-4.2-9.1,6.7-11,19.4-4.2,28.4 64.8,85.9 64.8,225.6 0,311.5-6.8,9-5.1,21.9 4.2,28.4 11.4,7.9 24.8,1.2 28.8-4.2 74.9-99.1 74.9-260.6 0-359.9v-1.42109e-14z"
           fill="#FFFFFF"
           id="path10"
           style="fill:#f15f18;fill-opacity:1" />
        <path
           d="m394.7,143.2c-6.8-9-19.7-10.8-28.8-4.2-9.1,6.7-11,19.4-4.2,28.4 36.6,48.4 36.6,130.3 0,178.7-6.8,9-5,21.8 4.2,28.4 11.7,8.3 24.8,1.2 28.8-4.2 48.1-63.6 48.1-163.4 0-227.1z"
           fill="#FFFFFF"
           id="path12"
           style="fill:#f15f18;fill-opacity:1" />
        <path
           d="m291.9,438.3l-144.2-112.4v-138.2l144.2-112.3v362.9 5.68434e-14zm-185.4-122.8h-54.3v-117.7h54.3v117.7zm194.7-300.2l-180.1,141.9h-89.5c-11.4,0-20.6,9.1-20.6,20.3v158.2c0,11.2 9.2,20.3 20.6,20.3h91.2l178.4,140.7c12.8,10.1 31.9,1.1 31.9-15.1v-451.2c0-16.2-19-25.3-31.9-15.1z"
           fill="#FFFFFF"
           id="path14"
           style="fill:#f15f18;fill-opacity:1" />
      </g>
    </g>
  </g>
</svg>
