<?xml version="1.0" encoding="UTF-8" standalone="no"?>
<!-- Generator: Adobe Illustrator 19.1.0, SVG Export Plug-In . SVG Version: 6.00 Build 0)  -->

<svg
   xmlns:dc="http://purl.org/dc/elements/1.1/"
   xmlns:cc="http://creativecommons.org/ns#"
   xmlns:rdf="http://www.w3.org/1999/02/22-rdf-syntax-ns#"
   xmlns:svg="http://www.w3.org/2000/svg"
   xmlns="http://www.w3.org/2000/svg"
   xmlns:sodipodi="http://sodipodi.sourceforge.net/DTD/sodipodi-0.dtd"
   xmlns:inkscape="http://www.inkscape.org/namespaces/inkscape"
   version="1.1"
   id="Capa_1"
   x="0px"
   y="0px"
   viewBox="0 0 504.765 504.765"
   style="enable-background:new 0 0 504.765 504.765;"
   xml:space="preserve"
   width="512px"
   height="512px"
   inkscape:version="0.91 r13725"
   sodipodi:docname="signal.svg"><metadata
   id="metadata53"><rdf:RDF><cc:Work
       rdf:about=""><dc:format>image/svg+xml</dc:format><dc:type
         rdf:resource="http://purl.org/dc/dcmitype/StillImage" /></cc:Work></rdf:RDF></metadata><defs
   id="defs51" /><sodipodi:namedview
   pagecolor="#ffffff"
   bordercolor="#666666"
   borderopacity="1"
   objecttolerance="10"
   gridtolerance="10"
   guidetolerance="10"
   inkscape:pageopacity="0"
   inkscape:pageshadow="2"
   inkscape:window-width="701"
   inkscape:window-height="480"
   id="namedview49"
   showgrid="false"
   inkscape:zoom="0.4609375"
   inkscape:cx="256"
   inkscape:cy="253.83051"
   inkscape:window-x="422"
   inkscape:window-y="116"
   inkscape:window-maximized="0"
   inkscape:current-layer="Capa_1" />
<g
   id="g3"
   style="fill:#f15f18;fill-opacity:1">
	<g
   id="g5"
   style="fill:#f15f18;fill-opacity:1">
		<g
   id="g7"
   style="fill:#f15f18;fill-opacity:1">
			<path
   d="M355.047,190.356c17.11-19.249,25.666-44.916,25.666-70.581s-8.555-51.332-25.666-70.581l-34.221,27.805     c8.555,8.555,17.11,23.527,17.11,42.777s-8.555,34.221-17.11,42.777L355.047,190.356L355.047,190.356z"
   fill="#FFFFFF"
   id="path9"
   style="fill:#f15f18;fill-opacity:1" />
			<path
   d="M183.941,162.551c-8.555-8.555-17.11-23.527-17.11-42.777s8.555-34.221,17.11-42.777L149.72,49.192     c-17.11,19.249-25.666,44.916-25.666,70.581s8.555,51.332,25.666,70.581L183.941,162.551L183.941,162.551z"
   fill="#FFFFFF"
   id="path11"
   style="fill:#f15f18;fill-opacity:1" />
			<path
   d="M295.16,119.775c0-23.527-19.249-42.777-42.777-42.777s-42.777,19.249-42.777,42.777c0,14.972,8.555,29.944,21.388,36.36     l-128.33,348.63h44.916v-2.139l104.803-91.97l104.803,91.97v2.139h44.916l-128.33-348.63     C286.605,149.718,295.16,134.747,295.16,119.775z M179.664,417.072l19.249-53.471l21.388,17.11L179.664,417.072z      M325.104,417.072l-109.081-96.247l36.36-100.525L325.104,417.072z"
   fill="#FFFFFF"
   id="path13"
   style="fill:#f15f18;fill-opacity:1" />
			<path
   d="M419.212,0l-32.083,27.805c23.527,29.944,36.36,59.887,36.36,91.97s-12.833,62.026-38.499,94.109l32.082,27.805     c34.221-40.638,49.193-81.275,49.193-121.914S451.295,38.499,419.212,0L419.212,0z"
   fill="#FFFFFF"
   id="path15"
   style="fill:#f15f18;fill-opacity:1" />
			<path
   d="M81.277,119.775c0-32.082,12.833-62.026,38.499-94.109L85.554,0C53.472,38.499,38.5,79.137,38.5,119.775     S53.472,201.05,85.554,239.55l32.082-27.805C94.11,181.801,81.277,151.857,81.277,119.775z"
   fill="#FFFFFF"
   id="path17"
   style="fill:#f15f18;fill-opacity:1" />
		</g>
	</g>
</g>
<g
   id="g19"
   style="fill:#f15f18;fill-opacity:1">
</g>
<g
   id="g21"
   style="fill:#f15f18;fill-opacity:1">
</g>
<g
   id="g23"
   style="fill:#f15f18;fill-opacity:1">
</g>
<g
   id="g25"
   style="fill:#f15f18;fill-opacity:1">
</g>
<g
   id="g27"
   style="fill:#f15f18;fill-opacity:1">
</g>
<g
   id="g29"
   style="fill:#f15f18;fill-opacity:1">
</g>
<g
   id="g31"
   style="fill:#f15f18;fill-opacity:1">
</g>
<g
   id="g33"
   style="fill:#f15f18;fill-opacity:1">
</g>
<g
   id="g35"
   style="fill:#f15f18;fill-opacity:1">
</g>
<g
   id="g37"
   style="fill:#f15f18;fill-opacity:1">
</g>
<g
   id="g39"
   style="fill:#f15f18;fill-opacity:1">
</g>
<g
   id="g41"
   style="fill:#f15f18;fill-opacity:1">
</g>
<g
   id="g43"
   style="fill:#f15f18;fill-opacity:1">
</g>
<g
   id="g45"
   style="fill:#f15f18;fill-opacity:1">
</g>
<g
   id="g47"
   style="fill:#f15f18;fill-opacity:1">
</g>
</svg>