<?xml version="1.0" encoding="UTF-8" standalone="no"?>
<!-- Generator: Adobe Illustrator 16.0.0, SVG Export Plug-In . SVG Version: 6.00 Build 0)  -->

<svg
   xmlns:dc="http://purl.org/dc/elements/1.1/"
   xmlns:cc="http://creativecommons.org/ns#"
   xmlns:rdf="http://www.w3.org/1999/02/22-rdf-syntax-ns#"
   xmlns:svg="http://www.w3.org/2000/svg"
   xmlns="http://www.w3.org/2000/svg"
   xmlns:sodipodi="http://sodipodi.sourceforge.net/DTD/sodipodi-0.dtd"
   xmlns:inkscape="http://www.inkscape.org/namespaces/inkscape"
   version="1.1"
   id="Capa_1"
   x="0px"
   y="0px"
   width="512px"
   height="512px"
   viewBox="0 0 516.375 516.375"
   style="enable-background:new 0 0 516.375 516.375;"
   xml:space="preserve"
   inkscape:version="0.91 r13725"
   sodipodi:docname="permissions.svg"><metadata
   id="metadata45"><rdf:RDF><cc:Work
       rdf:about=""><dc:format>image/svg+xml</dc:format><dc:type
         rdf:resource="http://purl.org/dc/dcmitype/StillImage" /></cc:Work></rdf:RDF></metadata><defs
   id="defs43" /><sodipodi:namedview
   pagecolor="#ffffff"
   bordercolor="#666666"
   borderopacity="1"
   objecttolerance="10"
   gridtolerance="10"
   guidetolerance="10"
   inkscape:pageopacity="0"
   inkscape:pageshadow="2"
   inkscape:window-width="2465"
   inkscape:window-height="1417"
   id="namedview41"
   showgrid="false"
   inkscape:zoom="0.4609375"
   inkscape:cx="256"
   inkscape:cy="253.83051"
   inkscape:window-x="87"
   inkscape:window-y="-8"
   inkscape:window-maximized="1"
   inkscape:current-layer="Capa_1" />
<g
   id="g3"
   style="fill:#f15f18;fill-opacity:1">
	<g
   id="g5"
   style="fill:#f15f18;fill-opacity:1">
		<path
   d="M258.188,286.875c-26.775,0-47.812,21.037-47.812,47.812c0,15.3,7.65,28.688,19.125,38.25v38.25    c0,15.3,13.388,28.688,28.688,28.688s28.688-13.388,28.688-28.688v-38.25c11.475-9.562,19.125-22.95,19.125-38.25    C306,307.912,284.963,286.875,258.188,286.875z M267.75,361.463v49.725c0,5.737-3.825,9.562-9.562,9.562s-9.562-3.825-9.562-9.562    v-49.725c-11.475-3.825-19.125-15.301-19.125-26.775c0-15.3,13.388-28.688,28.688-28.688s28.688,13.388,28.688,28.688    C286.875,348.075,279.225,357.638,267.75,361.463z"
   fill="#FFFFFF"
   id="path7"
   style="fill:#f15f18;fill-opacity:1" />
		<path
   d="M401.625,210.375v-66.938C401.625,65.025,336.6,0,258.188,0C179.775,0,114.75,65.025,114.75,143.438v66.938    c-32.513,0-57.375,24.862-57.375,57.375V459c0,32.513,24.862,57.375,57.375,57.375h286.875C434.138,516.375,459,491.513,459,459    V267.75C459,237.15,434.138,210.375,401.625,210.375z M133.875,143.438c0-68.85,55.462-124.312,124.312-124.312    c68.85,0,124.312,55.462,124.312,124.312v66.938h-19.125v-66.938c0-57.375-47.812-105.188-105.188-105.188S153,86.062,153,143.438    v66.938h-19.125V143.438z M344.25,143.438v66.938H172.125v-66.938c0-47.812,38.25-86.062,86.062-86.062    S344.25,95.625,344.25,143.438z M439.875,459c0,21.037-17.213,38.25-38.25,38.25H114.75c-21.038,0-38.25-17.213-38.25-38.25    V267.75c0-21.038,17.212-38.25,38.25-38.25h286.875c21.037,0,38.25,17.212,38.25,38.25V459z"
   fill="#FFFFFF"
   id="path9"
   style="fill:#f15f18;fill-opacity:1" />
	</g>
</g>
<g
   id="g11">
</g>
<g
   id="g13">
</g>
<g
   id="g15">
</g>
<g
   id="g17">
</g>
<g
   id="g19">
</g>
<g
   id="g21">
</g>
<g
   id="g23">
</g>
<g
   id="g25">
</g>
<g
   id="g27">
</g>
<g
   id="g29">
</g>
<g
   id="g31">
</g>
<g
   id="g33">
</g>
<g
   id="g35">
</g>
<g
   id="g37">
</g>
<g
   id="g39">
</g>
</svg>