<?xml version="1.0" encoding="UTF-8" standalone="no"?>
<!-- Generated by IcoMoon.io -->

<svg
   xmlns:dc="http://purl.org/dc/elements/1.1/"
   xmlns:cc="http://creativecommons.org/ns#"
   xmlns:rdf="http://www.w3.org/1999/02/22-rdf-syntax-ns#"
   xmlns:svg="http://www.w3.org/2000/svg"
   xmlns="http://www.w3.org/2000/svg"
   xmlns:sodipodi="http://sodipodi.sourceforge.net/DTD/sodipodi-0.dtd"
   xmlns:inkscape="http://www.inkscape.org/namespaces/inkscape"
   version="1.1"
   width="512px"
   height="512px"
   viewBox="0 0 16 16"
   id="svg2"
   inkscape:version="0.91 r13725"
   sodipodi:docname="faq.svg">
  <metadata
     id="metadata14">
    <rdf:RDF>
      <cc:Work
         rdf:about="">
        <dc:format>image/svg+xml</dc:format>
        <dc:type
           rdf:resource="http://purl.org/dc/dcmitype/StillImage" />
      </cc:Work>
    </rdf:RDF>
  </metadata>
  <defs
     id="defs12" />
  <sodipodi:namedview
     pagecolor="#ffffff"
     bordercolor="#666666"
     borderopacity="1"
     objecttolerance="10"
     gridtolerance="10"
     guidetolerance="10"
     inkscape:pageopacity="0"
     inkscape:pageshadow="2"
     inkscape:window-width="2465"
     inkscape:window-height="1417"
     id="namedview10"
     showgrid="false"
     inkscape:zoom="1.3037281"
     inkscape:cx="347.7756"
     inkscape:cy="277.48376"
     inkscape:window-x="87"
     inkscape:window-y="-8"
     inkscape:window-maximized="1"
     inkscape:current-layer="svg2" />
  <path
     fill="#FFFFFF"
     d="M9 10h-2c0-2 1.2-2.6 2-3 0.3-0.1 0.5-0.2 0.7-0.4 0.1-0.1 0.3-0.3 0.1-0.7-0.2-0.5-0.8-1-1.7-1-1.4 0-1.6 1.2-1.7 1.5l-2-0.3c0.1-1.1 1-3.2 3.6-3.2 1.6 0 3 0.9 3.6 2.2 0.4 1.1 0.2 2.2-0.6 3-0.4 0.4-0.8 0.6-1.2 0.7-0.6 0.4-0.8 0.2-0.8 1.2z"
     id="path4"
     style="fill:#f15f18;fill-opacity:1" />
  <path
     fill="#FFFFFF"
     d="M8 1c3.9 0 7 3.1 7 7s-3.1 7-7 7-7-3.1-7-7 3.1-7 7-7zM8 0c-4.4 0-8 3.6-8 8s3.6 8 8 8 8-3.6 8-8-3.6-8-8-8v0z"
     id="path6"
     style="fill:#f15f18;fill-opacity:1" />
  <path
     fill="#FFFFFF"
     d="M6.9 11h2v2h-2v-2z"
     id="path8"
     style="fill:#f15f18;fill-opacity:1" />
</svg>
