<?xml version="1.0" encoding="UTF-8" standalone="no"?>
<svg
   xmlns:dc="http://purl.org/dc/elements/1.1/"
   xmlns:cc="http://creativecommons.org/ns#"
   xmlns:rdf="http://www.w3.org/1999/02/22-rdf-syntax-ns#"
   xmlns:svg="http://www.w3.org/2000/svg"
   xmlns="http://www.w3.org/2000/svg"
   xmlns:sodipodi="http://sodipodi.sourceforge.net/DTD/sodipodi-0.dtd"
   xmlns:inkscape="http://www.inkscape.org/namespaces/inkscape"
   version="1.1"
   viewBox="0 0 512 512"
   enable-background="new 0 0 512 512"
   width="512px"
   height="512px"
   id="svg2"
   inkscape:version="0.91 r13725"
   sodipodi:docname="light.svg">
  <metadata
     id="metadata24">
    <rdf:RDF>
      <cc:Work
         rdf:about="">
        <dc:format>image/svg+xml</dc:format>
        <dc:type
           rdf:resource="http://purl.org/dc/dcmitype/StillImage" />
      </cc:Work>
    </rdf:RDF>
  </metadata>
  <defs
     id="defs22" />
  <sodipodi:namedview
     pagecolor="#ffffff"
     bordercolor="#666666"
     borderopacity="1"
     objecttolerance="10"
     gridtolerance="10"
     guidetolerance="10"
     inkscape:pageopacity="0"
     inkscape:pageshadow="2"
     inkscape:window-width="2465"
     inkscape:window-height="1417"
     id="namedview20"
     showgrid="false"
     inkscape:zoom="0.4609375"
     inkscape:cx="256"
     inkscape:cy="253.83051"
     inkscape:window-x="87"
     inkscape:window-y="-8"
     inkscape:window-maximized="1"
     inkscape:current-layer="g4" />
  <g
     id="g4">
    <g
       id="g6"
       style="fill:#f15f18;fill-opacity:1">
      <path
         d="m256,92.3c-74.2,0-127.8,55.3-136.3,114.7-5.3,39.6 7.5,78.2 34.1,107.4 23.4,25 36.2,58.4 36.2,92.8l-.1,54.2c0,21.9 18.1,39.6 40.5,39.6h52.2c22.4,0 40.5-17.7 40.5-39.6l.1-54.2c0-35.4 11.7-67.8 34.1-90.7 24.5-25 37.3-57.3 37.3-90.7-0.1-74.1-63-133.5-138.6-133.5zm46.8,369.1c0,10.4-8.5,18.8-19.2,18.8h-52.2c-10.7,0-19.2-8.3-19.2-18.8v-24h90.5v24zm39.6-159.5c-26.6,27.1-40.5,64.6-40.5,105.3v9.4h-90.5v-9.4c0-38.6-16-77.1-42.6-106.3-23.4-25-33-57.3-28.8-90.7 7.5-50 54-97 116.1-97 65,0 117.2,51.1 117.2,112.6 0,28.1-10.7,55.2-30.9,76.1z"
         fill="#FFFFFF"
         id="path8"
         style="fill:#f15f18;fill-opacity:1" />
      <rect
         width="21.3"
         x="245.3"
         y="11"
         height="50"
         fill="#FFFFFF"
         id="rect10"
         style="fill:#f15f18;fill-opacity:1" />
      <polygon
         points="385.1,107.4 400,122.3 436.5,87.2 421.5,72.3   "
         fill="#FFFFFF"
         id="polygon12"
         style="fill:#f15f18;fill-opacity:1" />
      <rect
         width="52.2"
         x="448.8"
         y="236.2"
         height="20.9"
         fill="#FFFFFF"
         id="rect14"
         style="fill:#f15f18;fill-opacity:1" />
      <rect
         width="52.2"
         x="11"
         y="236.2"
         height="20.9"
         fill="#FFFFFF"
         id="rect16"
         style="fill:#f15f18;fill-opacity:1" />
      <polygon
         points="90.1,72.2 75.1,87.1 111.6,122.2 126.5,107.3   "
         fill="#FFFFFF"
         id="polygon18"
         style="fill:#f15f18;fill-opacity:1" />
    </g>
  </g>
</svg>
