<?xml version="1.0" encoding="UTF-8" standalone="no"?>
<!-- Generator: Adobe Illustrator 19.1.0, SVG Export Plug-In . SVG Version: 6.00 Build 0)  -->

<svg
   xmlns:dc="http://purl.org/dc/elements/1.1/"
   xmlns:cc="http://creativecommons.org/ns#"
   xmlns:rdf="http://www.w3.org/1999/02/22-rdf-syntax-ns#"
   xmlns:svg="http://www.w3.org/2000/svg"
   xmlns="http://www.w3.org/2000/svg"
   xmlns:sodipodi="http://sodipodi.sourceforge.net/DTD/sodipodi-0.dtd"
   xmlns:inkscape="http://www.inkscape.org/namespaces/inkscape"
   version="1.1"
   id="Capa_1"
   x="0px"
   y="0px"
   viewBox="0 0 31.06 31.06"
   style="enable-background:new 0 0 31.06 31.06;"
   xml:space="preserve"
   width="512px"
   height="512px"
   inkscape:version="0.91 r13725"
   sodipodi:docname="settings.svg"><metadata
   id="metadata47"><rdf:RDF><cc:Work
       rdf:about=""><dc:format>image/svg+xml</dc:format><dc:type
         rdf:resource="http://purl.org/dc/dcmitype/StillImage" /></cc:Work></rdf:RDF></metadata><defs
   id="defs45" /><sodipodi:namedview
   pagecolor="#ffffff"
   bordercolor="#666666"
   borderopacity="1"
   objecttolerance="10"
   gridtolerance="10"
   guidetolerance="10"
   inkscape:pageopacity="0"
   inkscape:pageshadow="2"
   inkscape:window-width="701"
   inkscape:window-height="480"
   id="namedview43"
   showgrid="false"
   inkscape:zoom="0.4609375"
   inkscape:cx="256"
   inkscape:cy="253.83051"
   inkscape:window-x="611"
   inkscape:window-y="215"
   inkscape:window-maximized="0"
   inkscape:current-layer="Capa_1" />
<g
   id="g3"
   style="fill:#f15f18;fill-opacity:1">
	<g
   id="g5"
   style="fill:#f15f18;fill-opacity:1">
		<path
   d="M18.8,31.06L18.8,31.06l-6.541-0.001c-0.49,0-0.888-0.397-0.888-0.888v-2.576    c-0.49-0.169-0.969-0.367-1.434-0.593l-1.821,1.821c-0.167,0.167-0.393,0.261-0.628,0.261l0,0c-0.235,0-0.461-0.094-0.627-0.261    l-4.625-4.625c-0.347-0.347-0.347-0.908,0-1.255l1.821-1.822c-0.227-0.464-0.425-0.943-0.594-1.434H0.887    c-0.235,0-0.461-0.094-0.627-0.26c-0.167-0.166-0.26-0.393-0.26-0.627v-6.542c0-0.489,0.397-0.887,0.888-0.887h2.576    c0.169-0.49,0.367-0.969,0.594-1.434L2.236,8.116C2.07,7.95,1.976,7.725,1.976,7.489c0-0.235,0.094-0.461,0.26-0.628l4.626-4.625    c0.166-0.167,0.392-0.26,0.627-0.26l0,0c0.235,0,0.461,0.093,0.628,0.26l1.821,1.821c0.464-0.227,0.943-0.425,1.434-0.593V0.888    c0-0.49,0.397-0.888,0.888-0.888H18.8c0.49,0,0.887,0.398,0.887,0.888v2.577c0.49,0.168,0.97,0.366,1.435,0.593l1.821-1.821    c0.347-0.347,0.908-0.347,1.255,0.001l4.626,4.625c0.166,0.166,0.26,0.392,0.26,0.627c0,0.235-0.094,0.461-0.26,0.628    l-1.822,1.821c0.227,0.465,0.425,0.943,0.594,1.434h2.576c0.49,0,0.888,0.397,0.888,0.888v6.541c0,0.235-0.094,0.461-0.26,0.627    c-0.167,0.167-0.393,0.26-0.628,0.26l0,0h-2.576c-0.169,0.49-0.367,0.97-0.594,1.434l1.822,1.822c0.347,0.346,0.347,0.908,0,1.255    l-4.626,4.625c-0.166,0.167-0.392,0.26-0.627,0.26l0,0c-0.235,0-0.461-0.094-0.628-0.26l-1.821-1.821    c-0.465,0.227-0.944,0.425-1.434,0.593v2.577c0,0.235-0.094,0.461-0.26,0.627C19.262,30.966,19.037,31.06,18.8,31.06z     M13.146,29.284h4.767v-2.34c0-0.396,0.263-0.745,0.644-0.854c0.801-0.228,1.575-0.549,2.301-0.952    c0.347-0.192,0.779-0.132,1.059,0.147l1.654,1.654l3.37-3.37l-1.654-1.654c-0.279-0.28-0.341-0.712-0.148-1.059    c0.403-0.725,0.724-1.499,0.953-2.301c0.108-0.381,0.457-0.644,0.853-0.644l0,0h2.341v-4.767h-2.341    c-0.396,0-0.744-0.263-0.853-0.644c-0.229-0.803-0.55-1.576-0.953-2.301c-0.192-0.347-0.131-0.779,0.148-1.059l1.654-1.654    l-3.37-3.37l-1.654,1.654c-0.28,0.28-0.712,0.34-1.059,0.148c-0.726-0.402-1.5-0.723-2.302-0.953    c-0.381-0.108-0.644-0.456-0.644-0.853v-2.34h-4.767v2.34c0,0.397-0.263,0.744-0.643,0.853c-0.804,0.23-1.578,0.551-2.302,0.953    C9.856,6.113,9.423,6.054,9.143,5.773L7.489,4.118l-3.37,3.371l1.654,1.654c0.28,0.279,0.341,0.712,0.148,1.059    c-0.403,0.725-0.724,1.498-0.953,2.301c-0.108,0.381-0.457,0.644-0.853,0.644h-2.34l-0.001,4.767h2.341    c0.396,0,0.744,0.263,0.853,0.644c0.229,0.803,0.55,1.577,0.953,2.302c0.192,0.346,0.132,0.777-0.148,1.058L4.119,23.57    l3.37,3.371l1.655-1.655c0.279-0.279,0.711-0.34,1.059-0.147c0.724,0.402,1.498,0.723,2.301,0.952    c0.381,0.109,0.643,0.457,0.643,0.854V29.284z"
   fill="#FFFFFF"
   id="path7"
   style="fill:#f15f18;fill-opacity:1" />
	</g>
	<g
   id="g9"
   style="fill:#f15f18;fill-opacity:1">
		<path
   d="M15.53,22.273c-3.719,0-6.744-3.025-6.744-6.744c0-3.719,3.025-6.744,6.744-6.744    c3.719,0,6.744,3.025,6.744,6.744C22.274,19.248,19.249,22.273,15.53,22.273z M15.53,10.561c-2.74,0-4.969,2.229-4.969,4.969    c0,2.741,2.229,4.97,4.969,4.97c2.74,0,4.97-2.229,4.97-4.97C20.5,12.79,18.27,10.561,15.53,10.561z"
   fill="#FFFFFF"
   id="path11"
   style="fill:#f15f18;fill-opacity:1" />
	</g>
</g>
<g
   id="g13"
   style="fill:#f15f18;fill-opacity:1">
</g>
<g
   id="g15"
   style="fill:#f15f18;fill-opacity:1">
</g>
<g
   id="g17"
   style="fill:#f15f18;fill-opacity:1">
</g>
<g
   id="g19"
   style="fill:#f15f18;fill-opacity:1">
</g>
<g
   id="g21"
   style="fill:#f15f18;fill-opacity:1">
</g>
<g
   id="g23"
   style="fill:#f15f18;fill-opacity:1">
</g>
<g
   id="g25"
   style="fill:#f15f18;fill-opacity:1">
</g>
<g
   id="g27"
   style="fill:#f15f18;fill-opacity:1">
</g>
<g
   id="g29"
   style="fill:#f15f18;fill-opacity:1">
</g>
<g
   id="g31"
   style="fill:#f15f18;fill-opacity:1">
</g>
<g
   id="g33"
   style="fill:#f15f18;fill-opacity:1">
</g>
<g
   id="g35"
   style="fill:#f15f18;fill-opacity:1">
</g>
<g
   id="g37"
   style="fill:#f15f18;fill-opacity:1">
</g>
<g
   id="g39"
   style="fill:#f15f18;fill-opacity:1">
</g>
<g
   id="g41"
   style="fill:#f15f18;fill-opacity:1">
</g>
</svg>