<?xml version="1.0" encoding="UTF-8" standalone="no"?>
<!-- Generator: Adobe Illustrator 17.1.0, SVG Export Plug-In . SVG Version: 6.00 Build 0)  -->

<svg
   xmlns:dc="http://purl.org/dc/elements/1.1/"
   xmlns:cc="http://creativecommons.org/ns#"
   xmlns:rdf="http://www.w3.org/1999/02/22-rdf-syntax-ns#"
   xmlns:svg="http://www.w3.org/2000/svg"
   xmlns="http://www.w3.org/2000/svg"
   xmlns:sodipodi="http://sodipodi.sourceforge.net/DTD/sodipodi-0.dtd"
   xmlns:inkscape="http://www.inkscape.org/namespaces/inkscape"
   version="1.1"
   id="Capa_1"
   x="0px"
   y="0px"
   viewBox="0 0 463 463"
   style="enable-background:new 0 0 463 463;"
   xml:space="preserve"
   width="512px"
   height="512px"
   inkscape:version="0.91 r13725"
   sodipodi:docname="space.svg"><metadata
   id="metadata57"><rdf:RDF><cc:Work
       rdf:about=""><dc:format>image/svg+xml</dc:format><dc:type
         rdf:resource="http://purl.org/dc/dcmitype/StillImage" /></cc:Work></rdf:RDF></metadata><defs
   id="defs55" /><sodipodi:namedview
   pagecolor="#ffffff"
   bordercolor="#666666"
   borderopacity="1"
   objecttolerance="10"
   gridtolerance="10"
   guidetolerance="10"
   inkscape:pageopacity="0"
   inkscape:pageshadow="2"
   inkscape:window-width="701"
   inkscape:window-height="480"
   id="namedview53"
   showgrid="false"
   inkscape:zoom="0.4609375"
   inkscape:cx="256"
   inkscape:cy="253.83051"
   inkscape:window-x="589"
   inkscape:window-y="105"
   inkscape:window-maximized="0"
   inkscape:current-layer="Capa_1" />
<g
   id="g3"
   style="fill:#f15f18;fill-opacity:1">
	<path
   d="M271.5,160h-80c-17.369,0-31.5,14.131-31.5,31.5v80c0,17.369,14.131,31.5,31.5,31.5h80c17.369,0,31.5-14.131,31.5-31.5v-80   C303,174.131,288.869,160,271.5,160z M288,271.5c0,9.098-7.402,16.5-16.5,16.5h-80c-9.098,0-16.5-7.402-16.5-16.5v-80   c0-9.098,7.402-16.5,16.5-16.5h80c9.098,0,16.5,7.402,16.5,16.5V271.5z"
   fill="#FFFFFF"
   id="path5"
   style="fill:#f15f18;fill-opacity:1" />
	<path
   d="M111.5,160h-80C14.131,160,0,174.131,0,191.5v80C0,288.869,14.131,303,31.5,303h80c17.369,0,31.5-14.131,31.5-31.5v-80   C143,174.131,128.869,160,111.5,160z M128,271.5c0,9.098-7.402,16.5-16.5,16.5h-80c-9.098,0-16.5-7.402-16.5-16.5v-80   c0-9.098,7.402-16.5,16.5-16.5h80c9.098,0,16.5,7.402,16.5,16.5V271.5z"
   fill="#FFFFFF"
   id="path7"
   style="fill:#f15f18;fill-opacity:1" />
	<path
   d="M431.5,160h-80c-17.369,0-31.5,14.131-31.5,31.5v80c0,17.369,14.131,31.5,31.5,31.5h80c17.369,0,31.5-14.131,31.5-31.5v-80   C463,174.131,448.869,160,431.5,160z M448,271.5c0,9.098-7.402,16.5-16.5,16.5h-80c-9.098,0-16.5-7.402-16.5-16.5v-80   c0-9.098,7.402-16.5,16.5-16.5h80c9.098,0,16.5,7.402,16.5,16.5V271.5z"
   fill="#FFFFFF"
   id="path9"
   style="fill:#f15f18;fill-opacity:1" />
	<path
   d="M271.5,0h-80C174.131,0,160,14.131,160,31.5v80c0,17.369,14.131,31.5,31.5,31.5h80c17.369,0,31.5-14.131,31.5-31.5v-80   C303,14.131,288.869,0,271.5,0z M288,111.5c0,9.098-7.402,16.5-16.5,16.5h-80c-9.098,0-16.5-7.402-16.5-16.5v-80   c0-9.098,7.402-16.5,16.5-16.5h80c9.098,0,16.5,7.402,16.5,16.5V111.5z"
   fill="#FFFFFF"
   id="path11"
   style="fill:#f15f18;fill-opacity:1" />
	<path
   d="M111.5,0h-80C14.131,0,0,14.131,0,31.5v80C0,128.869,14.131,143,31.5,143h80c17.369,0,31.5-14.131,31.5-31.5v-80   C143,14.131,128.869,0,111.5,0z M128,111.5c0,9.098-7.402,16.5-16.5,16.5h-80c-9.098,0-16.5-7.402-16.5-16.5v-80   C15,22.402,22.402,15,31.5,15h80c9.098,0,16.5,7.402,16.5,16.5V111.5z"
   fill="#FFFFFF"
   id="path13"
   style="fill:#f15f18;fill-opacity:1" />
	<path
   d="M431.5,0h-80C334.131,0,320,14.131,320,31.5v80c0,17.369,14.131,31.5,31.5,31.5h80c17.369,0,31.5-14.131,31.5-31.5v-80   C463,14.131,448.869,0,431.5,0z M448,111.5c0,9.098-7.402,16.5-16.5,16.5h-80c-9.098,0-16.5-7.402-16.5-16.5v-80   c0-9.098,7.402-16.5,16.5-16.5h80c9.098,0,16.5,7.402,16.5,16.5V111.5z"
   fill="#FFFFFF"
   id="path15"
   style="fill:#f15f18;fill-opacity:1" />
	<path
   d="M271.5,320h-80c-17.369,0-31.5,14.131-31.5,31.5v80c0,17.369,14.131,31.5,31.5,31.5h80c17.369,0,31.5-14.131,31.5-31.5v-80   C303,334.131,288.869,320,271.5,320z M288,431.5c0,9.098-7.402,16.5-16.5,16.5h-80c-9.098,0-16.5-7.402-16.5-16.5v-80   c0-9.098,7.402-16.5,16.5-16.5h80c9.098,0,16.5,7.402,16.5,16.5V431.5z"
   fill="#FFFFFF"
   id="path17"
   style="fill:#f15f18;fill-opacity:1" />
	<path
   d="M111.5,320h-80C14.131,320,0,334.131,0,351.5v80C0,448.869,14.131,463,31.5,463h80c17.369,0,31.5-14.131,31.5-31.5v-80   C143,334.131,128.869,320,111.5,320z M128,431.5c0,9.098-7.402,16.5-16.5,16.5h-80c-9.098,0-16.5-7.402-16.5-16.5v-80   c0-9.098,7.402-16.5,16.5-16.5h80c9.098,0,16.5,7.402,16.5,16.5V431.5z"
   fill="#FFFFFF"
   id="path19"
   style="fill:#f15f18;fill-opacity:1" />
	<path
   d="M431.5,320h-80c-17.369,0-31.5,14.131-31.5,31.5v80c0,17.369,14.131,31.5,31.5,31.5h80c17.369,0,31.5-14.131,31.5-31.5v-80   C463,334.131,448.869,320,431.5,320z M448,431.5c0,9.098-7.402,16.5-16.5,16.5h-80c-9.098,0-16.5-7.402-16.5-16.5v-80   c0-9.098,7.402-16.5,16.5-16.5h80c9.098,0,16.5,7.402,16.5,16.5V431.5z"
   fill="#FFFFFF"
   id="path21"
   style="fill:#f15f18;fill-opacity:1" />
</g>
<g
   id="g23"
   style="fill:#f15f18;fill-opacity:1">
</g>
<g
   id="g25"
   style="fill:#f15f18;fill-opacity:1">
</g>
<g
   id="g27"
   style="fill:#f15f18;fill-opacity:1">
</g>
<g
   id="g29"
   style="fill:#f15f18;fill-opacity:1">
</g>
<g
   id="g31"
   style="fill:#f15f18;fill-opacity:1">
</g>
<g
   id="g33"
   style="fill:#f15f18;fill-opacity:1">
</g>
<g
   id="g35"
   style="fill:#f15f18;fill-opacity:1">
</g>
<g
   id="g37"
   style="fill:#f15f18;fill-opacity:1">
</g>
<g
   id="g39"
   style="fill:#f15f18;fill-opacity:1">
</g>
<g
   id="g41"
   style="fill:#f15f18;fill-opacity:1">
</g>
<g
   id="g43"
   style="fill:#f15f18;fill-opacity:1">
</g>
<g
   id="g45"
   style="fill:#f15f18;fill-opacity:1">
</g>
<g
   id="g47"
   style="fill:#f15f18;fill-opacity:1">
</g>
<g
   id="g49"
   style="fill:#f15f18;fill-opacity:1">
</g>
<g
   id="g51"
   style="fill:#f15f18;fill-opacity:1">
</g>
</svg>